<svg viewBox="0 0 45 45" fill="none" xmlns="http://www.w3.org/2000/svg">
<path d="M34.5132 10.342C33.897 11.8385 33.4202 14.137 33.5818 17.5987C33.9643 25.8051 34.4748 29.7167 29.7126 34.3933C24.9505 39.07 13.3437 36.6892 13.3437 36.6892C13.3437 36.6892 26.8106 31.1876 27.7569 21.6807C28.4276 14.9371 29.1826 10.7238 32.7224 8.8024C34.4533 7.8629 35.9423 7.80093 36.1141 7.99557C36.4091 8.33029 35.1975 8.68118 34.5132 10.342ZM11.2613 33.2875C11.2613 33.2875 4.513 20.4853 12.7221 14.3633C12.7221 14.3633 14.1141 13.3194 13.4178 14.7115C13.4178 14.7115 9.7978 20.9715 13.673 27.0497C13.9229 27.4417 13.9175 27.6222 13.673 27.8134C12.9342 28.392 11.0478 29.2062 11.2613 33.2875ZM13.8643 30.1571C13.8804 29.8224 14.0306 28.9752 15.2193 28.4997C16.6013 27.9468 16.3986 26.6449 15.746 25.5977C15.1399 24.6252 13.8771 22.4007 14.1088 19.2784C14.5768 12.9861 20.9432 10.5514 21.2093 10.7858C21.3702 10.9272 21.0443 11.2202 20.5452 11.9711C19.7519 13.1632 18.6197 15.0388 18.6473 16.7805C18.6635 17.7691 19.1949 18.7807 19.5565 18.8534C19.7956 18.9013 19.9229 18.6029 20.0401 18.2594C22.6546 10.5838 27.7353 8.92026 28.7718 8.63336C28.9994 8.57005 29.6103 8.43266 29.6729 8.64144C29.7443 8.88052 29.2129 9.27654 28.5435 10.01C26.3526 12.4089 26.2685 15.154 25.461 21.4255C25.0899 24.3039 22.7845 28.1158 19.636 29.8548C17.4041 31.0879 16.1528 30.9404 14.4381 33.0423C14.3532 31.2037 13.8198 31.1007 13.8643 30.1571ZM22.4997 0C10.0733 0 0 10.0733 0 22.4997C0 34.9267 10.0733 45 22.4997 45C34.9267 45 45 34.9267 45 22.4997C45 10.0733 34.9267 0 22.4997 0Z" fill="#F4F4F4"/>
</svg>
